<svg xmlns="http://www.w3.org/2000/svg" viewBox="0 0 187.67 33.18">
  <path fill="#fff" d="M0 0h33.18v33.18H0Z"/>
  <path d="M24.38 8.1q-.37-.23-.88-.44-.5-.22-1.06-.4-.56-.16-1.13-.24-.56-.1-1.07-.1-.55 0-1.04.1-.48.1-.84.3-.35.2-.57.54-.21.32-.24.77-.02.52.18.9.21.4.58.71.39.32.9.62l1.15.62q1.73.96 2.53 2.07.82 1.1.74 2.62-.05 1.02-.48 1.86-.41.84-1 1.48-.58.62-1.25 1.06-.64.44-1.17.69.4.59.64 1.3.25.68.2 1.52-.05 1.08-.54 2.08-.47 1-1.4 1.77-.91.77-2.3 1.24-1.37.47-3.2.47-.67 0-1.42-.08-.73-.09-1.45-.24-.71-.15-1.34-.37-.61-.22-1.02-.47l1.02-3.71q.4.29.92.55.54.27 1.16.47.6.2 1.26.34.64.12 1.28.12.73 0 1.25-.15.53-.17.88-.42t.52-.58q.18-.33.2-.68.03-.52-.24-.93-.24-.42-.66-.77-.4-.35-.93-.64l-1.04-.59q-.6-.35-1.15-.8-.55-.46-.96-1.03-.39-.57-.6-1.24-.22-.69-.18-1.5.05-1.05.43-1.84.38-.8.9-1.36.56-.57 1.18-.96.64-.4 1.21-.65-.44-.63-.75-1.35-.32-.72-.27-1.68.07-1.36.66-2.4.6-1.04 1.6-1.73 1-.7 2.29-1.06 1.31-.35 2.79-.35.54 0 1.14.07.62.05 1.23.17.62.1 1.2.28.58.17 1.05.4zm-4.82 8.83q.02-.27-.04-.54-.05-.27-.25-.56-.2-.3-.61-.62-.39-.33-1.07-.7l-.54-.3-.59-.4q-.72.33-1.27.92-.53.58-.57 1.34-.02.4.03.7.07.3.27.6.2.28.58.58.38.29.99.66.27.18.58.35.33.17.65.4.35-.17.66-.4.34-.25.59-.57.25-.32.4-.7.17-.36.2-.76z"/>
  <path fill="#fff" d="M115.26 8.2q-.4-.25-.89-.48-.48-.25-1.03-.43-.54-.18-1.15-.3-.6-.11-1.27-.11-.73 0-1.24.2-.5.2-.8.5-.3.3-.43.64t-.13.63q0 .43.13.79.15.35.43.69.3.32.76.67.48.33 1.15.75.88.54 1.55 1.1.69.54 1.17 1.17.47.62.72 1.36.24.73.24 1.65 0 .53-.13 1.16-.11.64-.4 1.28-.3.64-.84 1.23-.51.6-1.3 1.05-.79.45-1.9.72-1.1.28-2.57.28-.83 0-1.61-.11-.78-.1-1.49-.29-.7-.2-1.3-.42-.61-.24-1.08-.48l.71-3.67q.48.35 1.04.66.57.3 1.17.54.62.23 1.28.36.66.13 1.33.13.74 0 1.26-.15.51-.17.84-.46.32-.28.46-.65.14-.38.14-.8 0-.43-.14-.77-.13-.35-.44-.66-.3-.32-.83-.65-.5-.35-1.24-.78-.78-.44-1.43-.94-.65-.52-1.11-1.14-.47-.63-.72-1.4-.26-.77-.26-1.71 0-1.08.4-2.11.4-1.03 1.25-1.85.85-.81 2.17-1.3 1.33-.5 3.17-.5.76 0 1.47.08.7.08 1.36.22.64.15 1.21.33.57.18 1.03.37zm22.26 4.15q0 .2-.04.52l-.1.67-.12.69-.12.55-1.61 7.65h-4.1l1.62-7.54.15-.86q.08-.44.08-.67 0-.65-.31-1t-.96-.35q-.49 0-1.04.33-.56.34-1.06.88t-.88 1.24q-.37.7-.53 1.43l-1.36 6.54h-4.12l1.62-7.54.15-.86q.08-.44.08-.67 0-.65-.32-1-.31-.35-.95-.35-.5 0-1.06.33-.55.34-1.04.9-.5.53-.87 1.23t-.53 1.42l-1.4 6.54h-4.13l1.97-9.07.23-1.19q.12-.6.2-1.15.1-.55.16-1.02l.12-.8h4.03l-.1.76q-.03.4-.08.75l-.08.65-.06.39h.05q.48-.62 1.03-1.14.57-.53 1.19-.9.62-.4 1.28-.61.66-.22 1.32-.22 1.55 0 2.33.8.8.8.92 2.22.5-.67 1.07-1.23.59-.55 1.24-.95.66-.4 1.37-.62.71-.22 1.45-.22 1.64 0 2.47.9.84.9.84 2.57zm6.54 9.96q-.23.07-.54.13-.3.07-.65.12-.33.06-.7.09-.37.04-.73.04-.87 0-1.49-.23-.6-.22-1-.62-.4-.42-.6-.97-.18-.57-.18-1.24 0-.29.03-.64l.09-.72.11-.78.16-.76.17-.8.28-1.35.35-1.6.34-1.62.28-1.34.18-.82h4.13l-1.57 7.44-.22 1.02q-.12.56-.12.97 0 .5.31.69.31.19.71.19.34 0 .67-.06.35-.08.64-.2l-.33 1.54-.32 1.52zm1.34-17.37q0 .5-.19.9-.2.4-.53.7-.32.28-.77.44-.44.15-.96.15-.49 0-.92-.14-.41-.15-.72-.41-.3-.27-.48-.64-.17-.36-.17-.78 0-.5.18-.9.2-.4.52-.7.34-.29.79-.44.45-.16.98-.16.5 0 .9.16.42.14.72.41.3.26.47.62.18.36.18.79zm8.85 7.27h-3.09l-1.06 4.95-.06.36-.08.39-.05.37q-.03.17-.03.29 0 .51.26.76.26.24.85.24.16 0 .4-.03l.48-.1.5-.14q.23-.07.37-.13l-.64 3.03q-.23.09-.56.18-.34.09-.74.17l-.84.13q-.43.05-.84.05-.98 0-1.64-.26-.66-.25-1.06-.69-.39-.45-.56-1.04-.15-.6-.15-1.3 0-.2.03-.47t.06-.56l.1-.57.12-.54 1.06-5.09h-2.04l.72-3h1.95l.67-3.1 4.3-1.07-.86 4.16h3.14zm12.15.4q0 1.02-.44 1.87-.42.86-1.45 1.48-1 .62-2.68.98-1.68.35-4.19.39l-.02.14v.12q0 .4.13.8.12.4.43.72.33.32.84.53.52.2 1.3.2.46 0 1-.08.56-.1 1.13-.25.57-.17 1.12-.39.57-.23 1.05-.5l-.63 3.05q-.4.2-.92.4t-1.13.35q-.59.15-1.28.24-.67.1-1.38.1-1.5 0-2.57-.45-1.07-.44-1.77-1.17-.68-.75-1-1.75-.33-.99-.33-2.11 0-1.7.56-3.22.57-1.53 1.6-2.68 1.04-1.15 2.5-1.82 1.48-.68 3.29-.68 1.3 0 2.22.3t1.5.85q.58.52.85 1.19.27.67.27 1.4zm-3.89.05q0-.48-.36-.79-.35-.32-1-.32-.56 0-1.1.25-.5.24-.95.68-.42.43-.73 1.04-.31.59-.47 1.29 2.33.02 3.46-.53 1.15-.56 1.15-1.62zm9.66 9.65q-.23.07-.54.13-.3.07-.65.12-.33.06-.7.09-.37.04-.73.04-.87 0-1.49-.23-.6-.22-1-.62-.4-.42-.6-.97-.18-.57-.18-1.24 0-.29.03-.64.03-.34.09-.72l.11-.78.16-.76.16-.81.35-1.62.46-2.12.5-2.38.52-2.4.45-2.13.33-1.6.18-.83h4.14l-2.93 13.8-.22 1.02q-.12.56-.12.97 0 .5.31.69.31.19.71.19.34 0 .67-.06.35-.08.64-.2l-.33 1.54-.32 1.52zm7.07 0q-.23.07-.54.13-.3.07-.64.12-.34.06-.71.09-.37.04-.73.04-.86 0-1.48-.23-.61-.22-1.01-.62-.4-.42-.6-.97-.18-.57-.18-1.24 0-.29.03-.64l.09-.72.12-.78.15-.76.17-.81.35-1.62.45-2.12.5-2.38q.28-1.23.52-2.4l.45-2.13.34-1.6.18-.83h4.13l-2.93 13.8-.22 1.02q-.11.56-.11.97 0 .5.3.69.32.19.72.19.33 0 .67-.06.35-.08.63-.2l-.32 1.54-.33 1.52zm7.08 0q-.23.07-.54.13-.3.07-.65.12-.34.06-.7.09-.37.04-.73.04-.87 0-1.49-.23-.6-.22-1-.62-.4-.42-.6-.97-.18-.57-.18-1.24l.02-.64.1-.72.11-.78.16-.76.16-.8.29-1.35.35-1.6.33-1.62.29-1.34.18-.82h4.13l-1.57 7.44-.22 1.02q-.12.56-.12.97 0 .5.31.69.31.19.71.19.34 0 .67-.06.35-.08.64-.2l-.33 1.54-.32 1.52zm1.34-17.37q0 .5-.19.9-.2.4-.53.7-.32.28-.78.44-.44.15-.95.15-.5 0-.92-.14-.41-.15-.72-.41-.3-.27-.48-.64-.17-.36-.17-.78 0-.5.18-.9.2-.4.52-.7.34-.29.79-.44.45-.16.98-.16.49 0 .9.16.42.14.71.41.31.26.48.62.18.36.18.79zm-100.87.1L82.5 6.1l-.67 3.1h-1.95l-.73 3.01h2.04l-1.06 5.09-.11.54-.1.57a13.83 13.83 0 0 0-.07.56 5.11 5.11 0 0 0-.02.47c0 .47.05.9.15 1.3a2.73 2.73 0 0 0 .56 1.04c.26.3.62.52 1.06.69.44.17.98.26 1.64.26.27 0 .55-.02.84-.06a11.48 11.48 0 0 0 .84-.13 10.57 10.57 0 0 0 .73-.16 5.64 5.64 0 0 0 .57-.18l.63-3.03-.37.13a27.3 27.3 0 0 1-.5.13 4.99 4.99 0 0 1-.48.1 2.44 2.44 0 0 1-.39.04c-.4 0-.68-.08-.85-.24-.17-.17-.26-.42-.26-.76 0-.08 0-.18.02-.29l.06-.37.07-.39.07-.36 1.06-4.95h4.51l-1.06 5.1-.11.53-.1.57a13.83 13.83 0 0 0-.07.56 5.11 5.11 0 0 0-.02.47c0 .47.05.9.15 1.3a2.73 2.73 0 0 0 .56 1.04c.26.3.62.53 1.06.69.43.17.98.26 1.64.26.27 0 .55-.02.84-.06a11.48 11.48 0 0 0 .84-.13 10.57 10.57 0 0 0 .73-.16 5.64 5.64 0 0 0 .57-.18l.63-3.03-.37.13-.5.13a4.99 4.99 0 0 1-.48.1 2.44 2.44 0 0 1-.4.04c-.39 0-.67-.08-.84-.24-.18-.16-.26-.42-.26-.76 0-.08 0-.18.02-.29l.06-.37.07-.39.07-.36 1.06-4.95h3.08l.71-3h-3.13l.86-4.17-4.3 1.06-.67 3.1h-4.5ZM54.43 8.2q-.4-.24-.89-.47-.48-.25-1.03-.43-.54-.18-1.15-.3-.6-.11-1.27-.11-.73 0-1.24.2-.5.2-.8.5-.3.3-.43.64t-.13.63q0 .43.13.79.15.35.43.69.3.32.76.67.48.33 1.15.75.88.54 1.55 1.1.69.54 1.17 1.17.47.62.72 1.36.24.73.24 1.65 0 .53-.13 1.16-.11.64-.4 1.28-.3.64-.84 1.23-.51.6-1.3 1.05-.79.45-1.9.72-1.1.28-2.57.28-.83 0-1.61-.11-.78-.1-1.49-.29-.7-.2-1.3-.42-.61-.24-1.08-.48l.71-3.67q.48.35 1.04.66.56.3 1.17.54.62.23 1.28.36.66.13 1.33.13.74 0 1.26-.15.51-.17.84-.46.32-.28.46-.65.14-.38.14-.8 0-.43-.14-.77-.13-.35-.44-.66-.3-.32-.83-.65-.5-.35-1.24-.78-.78-.44-1.43-.94-.65-.52-1.11-1.14-.47-.63-.73-1.4-.25-.77-.25-1.71 0-1.08.4-2.11.4-1.03 1.25-1.85.85-.81 2.17-1.3 1.33-.5 3.17-.5.76 0 1.47.08.7.08 1.36.22.64.15 1.21.33.57.18 1.03.37zm10.75 4.64q-.44-.34-1.14-.58-.7-.25-1.51-.25-.95 0-1.7.44-.77.44-1.3 1.14t-.81 1.56q-.29.87-.29 1.7 0 1.34.62 2.06.62.73 1.86.73.39 0 .8-.08.43-.08.84-.2.42-.15.8-.32.38-.16.69-.36l-.63 3.13q-.88.45-1.88.7-1 .25-1.99.25-1.29 0-2.27-.4-.97-.4-1.63-1.12-.66-.72-1-1.72-.32-1-.32-2.2 0-1.12.25-2.17.26-1.06.74-1.99.47-.93 1.17-1.71.71-.8 1.62-1.36.91-.57 2.01-.88 1.11-.32 2.4-.32.59 0 1.12.08.53.06.96.18.44.1.78.24.34.13.54.25zm13.67 1.62q0 .91-.18 1.88-.18.97-.57 1.9-.39.92-1 1.75-.61.82-1.5 1.44-.86.61-2 .97-1.14.36-2.6.36-1.48 0-2.57-.42-1.09-.43-1.8-1.18-.7-.75-1.06-1.77-.35-1.03-.35-2.22 0-.96.2-1.94.19-1 .6-1.91.4-.92 1.04-1.72.63-.81 1.5-1.4.89-.61 2.01-.96 1.14-.35 2.55-.35 1.38 0 2.44.4 1.07.39 1.8 1.12.73.73 1.1 1.76.4 1.02.4 2.29zm-4.12.05q0-.55-.13-1-.13-.46-.39-.78-.24-.34-.6-.52-.37-.2-.84-.2-.82 0-1.46.47t-1.08 1.2q-.43.74-.67 1.66-.23.91-.23 1.83 0 1.17.54 1.82.56.65 1.44.65.84 0 1.47-.46.65-.45 1.07-1.17.44-.74.66-1.66.22-.91.22-1.84z"/>
</svg>
